<?xml version="1.0" encoding="utf-8"?>
<!-- Generator: Adobe Illustrator 16.0.0, SVG Export Plug-In . SVG Version: 6.00 Build 0)  -->
<!DOCTYPE svg PUBLIC "-//W3C//DTD SVG 1.1//EN" "http://www.w3.org/Graphics/SVG/1.1/DTD/svg11.dtd">
<svg version="1.1" id="Layer_1" xmlns="http://www.w3.org/2000/svg" xmlns:xlink="http://www.w3.org/1999/xlink" x="0px" y="0px"
	 width="24px" height="24px" viewBox="0 0 24 24" enable-background="new 0 0 24 24" xml:space="preserve">
<g>
	<path d="M19.7,0.5H4.3c-2.1,0-3.8,1.7-3.8,3.8v15.4c0,2.1,1.7,3.8,3.8,3.8h15.4c2.1,0,3.8-1.7,3.8-3.8V4.3
		C23.5,2.2,21.8,0.5,19.7,0.5z M18.8,18.2c0,0,0.1,0.1,0.1,0.1c0.1,0.1,0.1,0.3,0,0.5c-0.1,0.1-0.2,0.2-0.4,0.2H15
		c-0.2,0-0.3-0.1-0.4-0.2L12,14.4l-2.6,4.4C9.3,19,9.2,19.1,9,19.1H5.5c-0.2,0-0.3-0.1-0.4-0.2c-0.1-0.1-0.1-0.3,0-0.5
		c0-0.1,0-0.1,0.1-0.1L8.7,12L5.1,5.8c0,0-0.1-0.1-0.1-0.1C5,5.5,5,5.3,5.1,5.2C5.2,5,5.4,4.9,5.5,4.9H9c0.2,0,0.3,0.1,0.4,0.2
		L12,9.6l2.6-4.4C14.7,5,14.8,4.9,15,4.9h3.5c0.2,0,0.3,0.1,0.4,0.2c0.1,0.1,0.1,0.3,0,0.5c0,0.1,0,0.1-0.1,0.1L15.3,12L18.8,18.2z"
		/>
</g>
</svg>
